# xmcd CD database file
#
# Track frame offsets:
#	150
#	23665
#	44873
#	67985
#	90688
#	117503
#	143585
#	168868
#	196510
#	234998
#	269903
#
# Disc length: 3977 seconds
#
# Revision: 1
# Processed by: cddbd v1.5.1PL0 Copyright (c) Steve Scherf et al.
# Submitted via: CDex 1.51
#
DISCID=940f870b
DTITLE=Harold Ashby - On The Sunny Side Of The Street
DYEAR=1992
DGENRE=Jazz
TTITLE0=Out Of Nowhere
TTITLE1=There Is No Greater Love
TTITLE2=Honeysuckle Rose
TTITLE3=Pennies From Heaven
TTITLE4=It's The Talk Of The Town
TTITLE5=Satin Doll
TTITLE6=These Foolish Things(Remind Me Of You)
TTITLE7=Of The Sunny Side Of The Street
TTITLE8=Scufflin'
TTITLE9=In My Solitude
TTITLE10=Just Squeeze Me
EXTD=YEAR: 1992
EXTT0=
EXTT1=
EXTT2=
EXTT3=
EXTT4=
EXTT5=
EXTT6=
EXTT7=
EXTT8=
EXTT9=
EXTT10=
PLAYORDER=
